<mxfile host="app.diagrams.net" agent="Mozilla/5.0 (Windows NT 10.0; Win64; x64) AppleWebKit/537.36 (KHTML, like Gecko) Chrome/136.0.0.0 Safari/537.36" version="27.0.9">
  <diagram name="Page-1" id="xazrkXuz-rSbIV8spxI4">
    <mxGraphModel dx="992" dy="520" grid="1" gridSize="10" guides="1" tooltips="1" connect="1" arrows="1" fold="1" page="1" pageScale="1" pageWidth="850" pageHeight="1100" math="0" shadow="0" adaptiveColors="none">
      <root>
        <mxCell id="0" />
        <mxCell id="1" parent="0" />
        <mxCell id="dQbaU62sYQBld1s9KoOa-9" value="" style="edgeStyle=orthogonalEdgeStyle;rounded=0;orthogonalLoop=1;jettySize=auto;html=1;" edge="1" parent="1" source="dQbaU62sYQBld1s9KoOa-1" target="dQbaU62sYQBld1s9KoOa-4">
          <mxGeometry relative="1" as="geometry" />
        </mxCell>
        <mxCell id="dQbaU62sYQBld1s9KoOa-1" value="Transmitting&lt;div&gt;user&lt;/div&gt;" style="shape=umlActor;verticalLabelPosition=bottom;verticalAlign=top;html=1;outlineConnect=0;" vertex="1" parent="1">
          <mxGeometry x="70" y="170" width="30" height="60" as="geometry" />
        </mxCell>
        <mxCell id="dQbaU62sYQBld1s9KoOa-7" value="" style="edgeStyle=orthogonalEdgeStyle;rounded=0;orthogonalLoop=1;jettySize=auto;html=1;" edge="1" parent="1" source="dQbaU62sYQBld1s9KoOa-4" target="dQbaU62sYQBld1s9KoOa-6">
          <mxGeometry relative="1" as="geometry" />
        </mxCell>
        <mxCell id="dQbaU62sYQBld1s9KoOa-4" value="TC" style="whiteSpace=wrap;html=1;aspect=fixed;" vertex="1" parent="1">
          <mxGeometry x="160" y="160" width="80" height="80" as="geometry" />
        </mxCell>
        <mxCell id="dQbaU62sYQBld1s9KoOa-11" value="" style="edgeStyle=orthogonalEdgeStyle;rounded=0;orthogonalLoop=1;jettySize=auto;html=1;" edge="1" parent="1" source="dQbaU62sYQBld1s9KoOa-5" target="dQbaU62sYQBld1s9KoOa-10">
          <mxGeometry relative="1" as="geometry" />
        </mxCell>
        <mxCell id="dQbaU62sYQBld1s9KoOa-13" style="edgeStyle=orthogonalEdgeStyle;rounded=0;orthogonalLoop=1;jettySize=auto;html=1;entryX=0;entryY=0.5;entryDx=0;entryDy=0;" edge="1" parent="1" source="dQbaU62sYQBld1s9KoOa-5" target="dQbaU62sYQBld1s9KoOa-12">
          <mxGeometry relative="1" as="geometry" />
        </mxCell>
        <mxCell id="dQbaU62sYQBld1s9KoOa-5" value="RC" style="whiteSpace=wrap;html=1;aspect=fixed;" vertex="1" parent="1">
          <mxGeometry x="400" y="160" width="80" height="80" as="geometry" />
        </mxCell>
        <mxCell id="dQbaU62sYQBld1s9KoOa-8" value="" style="edgeStyle=orthogonalEdgeStyle;rounded=0;orthogonalLoop=1;jettySize=auto;html=1;" edge="1" parent="1" source="dQbaU62sYQBld1s9KoOa-6" target="dQbaU62sYQBld1s9KoOa-5">
          <mxGeometry relative="1" as="geometry" />
        </mxCell>
        <mxCell id="dQbaU62sYQBld1s9KoOa-6" value="Server" style="rhombus;whiteSpace=wrap;html=1;" vertex="1" parent="1">
          <mxGeometry x="280" y="160" width="80" height="80" as="geometry" />
        </mxCell>
        <mxCell id="dQbaU62sYQBld1s9KoOa-15" value="" style="edgeStyle=orthogonalEdgeStyle;rounded=0;orthogonalLoop=1;jettySize=auto;html=1;" edge="1" parent="1" source="dQbaU62sYQBld1s9KoOa-10" target="dQbaU62sYQBld1s9KoOa-14">
          <mxGeometry relative="1" as="geometry" />
        </mxCell>
        <mxCell id="dQbaU62sYQBld1s9KoOa-10" value="Web Client" style="whiteSpace=wrap;html=1;aspect=fixed;" vertex="1" parent="1">
          <mxGeometry x="520" y="80" width="80" height="80" as="geometry" />
        </mxCell>
        <mxCell id="dQbaU62sYQBld1s9KoOa-17" value="" style="edgeStyle=orthogonalEdgeStyle;rounded=0;orthogonalLoop=1;jettySize=auto;html=1;" edge="1" parent="1" source="dQbaU62sYQBld1s9KoOa-12" target="dQbaU62sYQBld1s9KoOa-16">
          <mxGeometry relative="1" as="geometry" />
        </mxCell>
        <mxCell id="dQbaU62sYQBld1s9KoOa-12" value="Web Client" style="whiteSpace=wrap;html=1;aspect=fixed;" vertex="1" parent="1">
          <mxGeometry x="520" y="240" width="80" height="80" as="geometry" />
        </mxCell>
        <mxCell id="dQbaU62sYQBld1s9KoOa-14" value="Receiving&lt;div&gt;User&lt;/div&gt;" style="shape=umlActor;verticalLabelPosition=bottom;verticalAlign=top;html=1;outlineConnect=0;" vertex="1" parent="1">
          <mxGeometry x="640" y="90" width="30" height="60" as="geometry" />
        </mxCell>
        <mxCell id="dQbaU62sYQBld1s9KoOa-16" value="Receiving&lt;div&gt;User&lt;/div&gt;" style="shape=umlActor;verticalLabelPosition=bottom;verticalAlign=top;html=1;outlineConnect=0;" vertex="1" parent="1">
          <mxGeometry x="640" y="250" width="30" height="60" as="geometry" />
        </mxCell>
      </root>
    </mxGraphModel>
  </diagram>
</mxfile>
